Coordinates
version=1
nRows=32
nColumns=12
inDegrees=yes

Units are S.I. units (second, meters, Newtons, ...)
Angles are in degrees

endheader
time	SC_y	SC_z	SC_x	AC_y	AC_z	AC_x	GH_y	GH_z	GH_yy	EL_x	PS_y
       0.0              -21.31          3.603          13.65          36.56          0.538        -0.2774          134.7           51.2          -77.2          63.35          156.2
   0.04062              -21.31          3.607          13.66          36.56         0.5377        -0.2787          134.7           51.2         -77.18          63.36          156.2
   0.08123              -21.31          3.611          13.67          36.56         0.5374          -0.28          134.6          51.19         -77.17          63.36          156.1
    0.1218              -21.32          3.615          13.68          36.56         0.5371        -0.2814          134.6          51.19         -77.16          63.37          156.1
    0.1625              -21.32           3.62          13.69          36.56         0.5368         -0.283          134.6          51.19         -77.15          63.38          156.1
    0.2031              -21.33          3.625           13.7          36.56         0.5365        -0.2846          134.6          51.19         -77.13          63.39          156.1
    0.2437              -21.33          3.631          13.71          36.56         0.5361        -0.2863          134.6          51.18         -77.12           63.4          156.1
    0.2843              -21.34          3.637          13.73          36.56         0.5357        -0.2882          134.6          51.18          -77.1          63.41          156.0
    0.3249              -21.34          3.643          13.74          36.56         0.5353        -0.2901          134.5          51.18         -77.08          63.42          156.0
    0.3655              -21.35           3.65          13.75          36.56         0.5349        -0.2923          134.5          51.17         -77.06          63.43          156.0
    0.4062              -21.35          3.657          13.77          36.56         0.5344        -0.2945          134.5          51.17         -77.04          63.44          156.0
    0.4468              -21.36          3.665          13.78          36.56         0.5339         -0.297          134.4          51.17         -77.02          63.45          155.9
    0.4874              -21.36          3.674           13.8          36.55         0.5333        -0.2996          134.4          51.16          -77.0          63.47          155.9
     0.528              -21.37          3.683          13.82          36.55         0.5327        -0.3025          134.4          51.16         -76.97          63.48          155.9
    0.5686              -21.38          3.693          13.84          36.55         0.5321        -0.3056          134.3          51.15         -76.94           63.5          155.8
    0.6092              -21.39          3.703          13.86          36.55         0.5314         -0.309          134.3          51.15         -76.91          63.51          155.8
    0.6499               -21.4          3.715          13.89          36.55         0.5306        -0.3126          134.3          51.14         -76.88          63.53          155.8
    0.6905              -21.41          3.728          13.92          36.55         0.5298        -0.3166          134.2          51.13         -76.84          63.55          155.7
    0.7311              -21.42          3.742          13.95          36.54         0.5289        -0.3209          134.2          51.13          -76.8          63.58          155.7
    0.7717              -21.43          3.757          13.98          36.54         0.5279        -0.3257          134.1          51.12         -76.76           63.6          155.6
    0.8123              -21.44          3.773          14.01          36.54         0.5268        -0.3309          134.1          51.11         -76.71          63.63          155.5
    0.8529              -21.46          3.792          14.05          36.54         0.5256        -0.3366          134.0           51.1         -76.66          63.66          155.5
    0.8936              -21.47          3.812          14.09          36.53         0.5243        -0.3429          133.9          51.09         -76.61          63.69          155.4
    0.9342              -21.49          3.835          14.14          36.53         0.5228          -0.35          133.8          51.08         -76.54          63.73          155.3
    0.9748              -21.51          3.859          14.19          36.53         0.5212        -0.3578          133.7          51.07         -76.47          63.77          155.2
     1.015              -21.53          3.887          14.25          36.52         0.5194        -0.3665          133.6          51.05         -76.39          63.82          155.1
     1.056              -21.56          3.918          14.32          36.52         0.5173        -0.3762          133.5          51.03         -76.31          63.87          155.0
     1.097              -21.59          3.954          14.39          36.51          0.515        -0.3872          133.4          51.02         -76.21          63.92          154.9
     1.137              -21.62          3.993          14.47          36.51         0.5124        -0.3996          133.3           51.0         -76.09          63.99          154.7
     1.178              -21.65          4.038          14.57           36.5         0.5095        -0.4137          133.1          50.97         -75.97          64.06          154.5
     1.218              -21.69           4.09          14.68          36.49         0.5061        -0.4298          132.9          50.95         -75.82          64.15          154.4
     1.259              -21.74          4.149           14.8          36.49         0.5023        -0.4482          132.7          50.92         -75.66          64.24          154.1
